# xmcd CD database file
#
# Track frame offsets:
#	150
#	600
#	31451
#	60039
#	86360
#	109297
#	138808
#	167100
#	196891
#	216800
#	247035
#	266073
#	304098
#
# Disc length: 4589 seconds
#
# Revision: 3
# Processed by: cddbd v1.5.2PL0 Copyright (c) Steve Scherf et al.
# Submitted via: CDex 1.50beta9
#
DISCID=a811eb0d
DTITLE=Julia Navarro - Die Bibelverschwörung CD5 von 6
DYEAR=2006
DGENRE=Blues
TTITLE0=053 nicht erfassen
TTITLE1=054 Robert Brown öffnete seine Wohnungstür ...
TTITLE2=055 Die Männer waren ausgelaugt ...
TTITLE3=056 Tannenberg - ich spreche mit ihnen - hören sie mich ...
TTITLE4=057 Starr vor Entsetzen sah Ali was da vor seinen ...
TTITLE5=058 Franz Ziereis, der Kommandat des Lagers ...
TTITLE6=059 Clara sah zu ihrem schlummernden Großvater ...
TTITLE7=060 Es war vorgesehen, dass sich die Gruppe ...
TTITLE8=061 Tom Martin las um ein Uhr nachts das ihn ...
TTITLE9=062 Als das Telefon an Carlo Cipriamis Bett klingelte ...
TTITLE10=063 Mercedes - weine nicht - bitte mein Kind ...
TTITLE11=064 Von den fünfzig Frauen starben fünfzehn unter ...
TTITLE12=065 Bei dem reichlichen Mahl, um das sich Gastgeber ...
EXTD=YEAR: 2006
EXTT0=
EXTT1=
EXTT2=
EXTT3=
EXTT4=
EXTT5=
EXTT6=
EXTT7=
EXTT8=
EXTT9=
EXTT10=
EXTT11=
EXTT12=
PLAYORDER=
